<?xml version="1.0" encoding="UTF-8"?>
<svg id="Layer_1" data-name="Layer 1" xmlns="http://www.w3.org/2000/svg" width="500" height="377.24" viewBox="0 0 500 377.24">
  <defs>
    <style>
      .cls-1 {
        fill: #ee463d;
        stroke-width: 0px;
      }
    </style>
  </defs>
  <g id="White">
    <g>
      <g>
        <path class="cls-1" d="M114.45,255.12c-3.2,7.03-10.55,10.87-19.18,10.87-6.39,0-11.83-2.24-15.98-6.39-4.16-4.48-6.39-9.91-6.39-16.62,0-13.43,9.59-23.02,22.38-23.02,8.31,0,15.66,4.16,19.18,11.19l.32.96,20.78-12.15-.32-.64c-7.35-14.07-22.7-23.02-39.96-23.02-13.43,0-24.62,4.48-33.57,13.43-8.95,9.27-13.43,20.14-13.43,33.25s4.48,24.3,13.43,33.25h0c8.95,8.95,20.14,13.43,33.57,13.43,16.94,0,32.29-8.95,40.28-23.02l.32-.64-21.1-12.15-.32,1.28Z"/>
        <rect class="cls-1" x="141.94" y="198.85" width="24.3" height="88.87"/>
        <path class="cls-1" d="M153.77,155.37c-7.99,0-14.71,6.71-14.71,14.71s6.71,14.71,14.71,14.71,14.71-6.39,14.71-14.71c.32-7.99-6.39-14.71-14.71-14.71"/>
        <path class="cls-1" d="M231.78,197.25h-.96c-11.51,0-20.78,5.12-25.58,13.75v-11.83h-24.3v88.55h24.3v-42.52c0-7.99,2.56-13.75,7.67-17.26s11.19-4.8,17.9-4.16h.96v-26.53Z"/>
        <path class="cls-1" d="M297.63,255.12c-3.52,7.03-10.55,10.87-19.18,10.87-6.39,0-11.83-2.24-15.98-6.39-4.16-4.48-6.39-9.91-6.39-16.62,0-13.43,9.59-23.02,22.38-23.02,8.31,0,15.66,4.16,19.18,11.19l.32.96,20.78-12.15-.32-.64c-7.35-14.07-22.7-23.02-39.96-23.02-13.43,0-24.62,4.48-33.57,13.43-8.95,9.27-13.43,20.14-13.43,33.25s4.48,24.3,13.43,33.25h0c8.95,8.95,20.14,13.43,33.57,13.43,16.94,0,32.29-8.95,40.28-23.02l.32-.64-21.1-11.51-.32.64Z"/>
        <rect class="cls-1" x="325.13" y="155.37" width="24.3" height="132.67"/>
        <path class="cls-1" d="M438.94,210.04c-8.31-8.95-19.18-13.43-32.29-13.43s-25.26,4.48-33.89,13.43-13.11,20.14-13.11,33.25,4.48,24.62,13.43,33.57c8.95,8.95,20.78,13.43,35.49,13.43,16.94,0,30.05-6.39,38.68-18.86l.64-.64-19.5-11.19-.32.64c-4.16,5.43-10.55,8.31-18.86,8.31-12.79,0-20.46-4.8-23.34-14.71h65.22v-.64c.64-3.84.96-6.71.96-9.27-.32-14.07-4.48-24.94-13.11-33.89M406.65,218.35c10.23,0,17.9,5.75,20.46,15.98h-42.2c2.88-10.23,10.55-15.98,21.74-15.98"/>
        <path class="cls-1" d="M426.79,73.21C379.48,25.9,316.82,0,250,0S120.52,25.9,73.21,73.21C26.21,120.2.32,182.86,0,249.68c0,12.79.96,25.58,2.88,38.04h24.62c-2.24-12.47-3.2-25.26-3.2-38.04,0-60.1,23.66-116.69,66.18-159.21C132.99,47.95,189.9,24.3,250,24.3s117.01,23.34,159.53,66.18c42.52,42.52,65.86,99.1,66.18,159.21,0,12.79-.96,25.58-3.2,38.04h24.62c1.92-12.47,2.88-25.26,2.88-38.04-.32-66.82-26.21-129.48-73.21-176.47"/>
      </g>
      <g>
        <path class="cls-1" d="M14.39,339.19c0-21.42,15.98-38.04,38.04-38.04,13.11,0,24.94,6.71,31.33,16.94l-14.39,8.31c-3.2-5.75-9.59-8.95-16.94-8.95-13.11,0-21.42,8.63-21.42,21.74s8.31,21.74,21.42,21.74c7.35,0,13.75-3.52,16.94-8.95l14.39,8.31c-6.39,10.23-17.9,16.94-31.33,16.94-22.06,0-38.04-16.62-38.04-38.04Z"/>
        <path class="cls-1" d="M87.6,339.19c0-21.42,16.94-38.04,38.04-38.04s38.04,16.3,38.04,38.04-16.94,38.04-38.04,38.04-38.04-16.62-38.04-38.04ZM147.06,339.19c0-13.11-9.27-21.74-21.42-21.74s-21.42,8.63-21.42,21.74,9.27,21.74,21.42,21.74,21.42-8.95,21.42-21.74Z"/>
        <path class="cls-1" d="M171.99,351.98v-49.55h16.62v48.27c0,5.43,2.56,10.23,11.51,10.23s11.51-4.8,11.51-10.23v-48.27h16.62v49.55c0,15.66-12.15,24.94-28.13,24.94s-28.13-9.27-28.13-24.94Z"/>
        <path class="cls-1" d="M297.95,302.43v73.21h-12.47l-28.13-39.64v39.64h-16.94v-73.21h12.47l28.13,39.64v-39.64h16.94Z"/>
        <path class="cls-1" d="M359.65,318.41h-18.86v57.23h-16.62v-57.23h-18.86v-15.98h54.35v15.98Z"/>
        <path class="cls-1" d="M391.62,351.66h-7.99v23.98h-16.62v-73.21h29.41c14.07,0,25.26,11.19,25.26,24.94,0,8.95-5.43,17.26-13.43,21.1l15.66,26.85h-17.9l-14.39-23.66ZM383.63,336.96h12.47c4.48,0,8.31-4.16,8.31-9.27s-3.84-9.27-8.31-9.27h-12.47v18.54Z"/>
        <path class="cls-1" d="M464.19,347.51v28.13h-16.62v-28.13l-24.62-45.08h18.86l14.07,28.13,14.07-28.13h18.86l-24.62,45.08Z"/>
      </g>
    </g>
  </g>
</svg>